<svg width="48" height="48" viewBox="0 0 48 48" xmlns="http://www.w3.org/2000/svg"
 xmlns:xlink="http://www.w3.org/1999/xlink"><defs><linearGradient x1="50%" y1="0%" x2="50%" y2="81.278%" id="a">
 <stop stop-color="#3B4659" offset="0%"/><stop stop-color="#282F3C" offset="100%"/></linearGradient><linearGradient
  x1="50%" y1="100%" x2="50%" y2="0%" id="d"><stop stop-color="#FFF" stop-opacity=".7" offset="0%"/><stop
   stop-color="#FFF" offset="100%"/></linearGradient><path d="M10.12 34.071C8.068 31.223 6.857 27.79 6.857 
   24A17.095 17.095 0 0 1 24 6.857c9.468 0 17.143 7.6 17.143 17.143 0 3.79-1.21 7.223-3.263 
   10.071l-8.201-13.285-.857 1.393.857 3.75L24 16.179l-3.429 5.892.75 3.75-3-5.035L10.12 34.07z"
    id="c"/><filter x="-5.8%" y="-3.7%" width="111.7%" height="114.7%" filterUnits="objectBoundingBox" 
    id="b"><feOffset dy="1" in="SourceAlpha" result="shadowOffsetOuter1"/><feGaussianBlur stdDeviation=".5" 
    in="shadowOffsetOuter1" result="shadowBlurOuter1"/><feColorMatrix values="0 0 0 0 0 0 0 0 0 0 0 0 0 0 0 0 0
     0 0.15073208 0" in="shadowBlurOuter1"/></filter><filter x="-4.4%" y="-1.8%" width="108.8%" height="111%" 
     filterUnits="objectBoundingBox" id="e"><feGaussianBlur stdDeviation=".5" in="SourceAlpha" 
     result="shadowBlurInner1"/><feOffset in="shadowBlurInner1" result="shadowOffsetInner1"/><feComposite
      in="shadowOffsetInner1" in2="SourceAlpha" operator="arithmetic" k2="-1" k3="1" 
      result="shadowInnerInner1"/><feColorMatrix values="0 0 0 0 1 0 0 0 0 1 0 0 0 0 1 0 0 0 0.3 0" 
      in="shadowInnerInner1"/></filter><linearGradient x1="50%" y1="100%" x2="50%" y2="0%" 
      id="h"><stop stop-color="#FFF" stop-opacity=".7" offset="0%"/><stop stop-color="#FFF" 
      offset="100%"/></linearGradient><path d="M18.87 37.37c1.145 0 1.748.822 1.748 1.908 0 .062 0 
      .125-.007.18h-2.995c.041.724.603 1.274 1.324 1.274.548 0 .97-.271 1.144-.793l.485.153c-.222.717-.887 
      1.12-1.622 1.12-1.075 0-1.88-.856-1.88-1.927 0-1.01.764-1.915 1.803-1.915zm3.98 0c.784 0 1.172.355 
      1.353.766.083.202.11.494.11.613v2.4h-.526v-.653h-.007c-.291.459-.693.716-1.248.716-.749 
      0-1.241-.466-1.241-1.092v-.042c0-.807.804-1.072 1.463-1.072h1.026v-.25c0-.599-.326-.905-.943-.905-.624 
      0-.908.403-.97.758l-.52-.111c.027-.313.443-1.128 1.504-1.128zm10.444 0c.978 0 1.29.655 
      1.345 1.01l-.492.118c-.063-.25-.264-.654-.853-.654-.402 0-.7.271-.7.591 0 .467.499.536.88.585.603.077 
      1.214.397 1.214 1.072 0 .682-.597 1.12-1.31 1.12-1.006 
      0-1.34-.681-1.408-1.1l.499-.117c.076.334.326.737.901.737.402 0
       .77-.215.77-.605 0-.453-.486-.557-.867-.613-.617-.09-1.22-.313-1.22-1.037 0-.696.63-1.107 
       1.241-1.107zM17.289 35.7v.536h-1.81v4.914h-.575v-4.914h-1.816V35.7h4.201zm9.923 1.663c.541 
       0 .964.258 1.186.745.312-.48.721-.738 1.304-.738.894 0 1.365.62 1.365 
       1.483v2.297h-.54v-2.165c0-.62-.278-1.12-.957-1.12-.652 0-1.026.529-1.026 
       1.148v2.137h-.534v-2.179c0-.612-.291-1.113-.957-1.113-.645 0-1.026.57-1.026 1.176v2.116h-.54v-3.717h.533v.647c.298-.452.638-.717 1.192-.717zm-3.432 2.089h-1.033c-.395 0-.915.125-.915.626 0 .418.353.654.797.654.659 0 1.15-.466 1.15-1.148v-.132zm-4.91-1.608c-.644 0-1.157.536-1.247 1.155h2.447c-.07-.675-.492-1.155-1.2-1.155z" id="g"/><filter x="-18.5%" y="-36.3%" width="137%" height="245.1%" filterUnits="objectBoundingBox" id="f"><feOffset dy="2" in="SourceAlpha" result="shadowOffsetOuter1"/><feGaussianBlur stdDeviation="1" in="shadowOffsetOuter1" result="shadowBlurOuter1"/><feColorMatrix values="0 0 0 0 0 0 0 0 0 0 0 0 0 0 0 0 0 0 0.4 0" in="shadowBlurOuter1"/></filter><filter x="-13.9%" y="-18.1%" width="127.8%" height="208.8%" filterUnits="objectBoundingBox" id="i"><feGaussianBlur stdDeviation="1" in="SourceAlpha" result="shadowBlurInner1"/><feOffset in="shadowBlurInner1" result="shadowOffsetInner1"/><feComposite in="shadowOffsetInner1" in2="SourceAlpha" operator="arithmetic" k2="-1" k3="1" result="shadowInnerInner1"/><feColorMatrix values="0 0 0 0 1 0 0 0 0 1 0 0 0 0 1 0 0 0 0.3 0" in="shadowInnerInner1"/></filter></defs><g fill="none" fill-rule="evenodd">
       <circle fill="black" cx="24" cy="24" r="24"/><use fill="#000" filter="url(#b)" xlink:href="#c"/><use fill="url(#d)" xlink:href="#c"/><use fill="#000" filter="url(#e)" xlink:href="#c"/><use fill="#000" filter="url(#f)" xlink:href="#g"/><use fill="url" xlink:href="#g"/><use fill="#000" filter="url(#i)" xlink:href="#g"/></g></svg>