<svg width="132" height="60" viewBox="0 0 132 60" xmlns="http://www.w3.org/2000/svg"><g fill="none"><path fill="#E20305" d="M18 47.965h29.458V12H18zm31 0h65.858V12H49z"/><path d="M97.737 33.191h5.755v1.491h-4.088v1.546h3.597v1.49h-3.597v1.6h4.142v1.491h-5.81v-7.618zm-8.384 3.831V37c0-2.165 1.635-3.94 3.979-3.94 1.439 0 2.3.48 3.008 1.176l-1.068 1.23c-.589-.533-1.188-.86-1.951-.86-1.286 0-2.213 1.067-2.213 2.373V37c0 1.306.905 2.394 2.213 2.394.872 0 1.406-.348 2.005-.892l1.069 1.077c-.785.838-1.657 1.361-3.129 1.361-2.245 0-3.913-1.73-3.913-3.918zm-3.248 3.787h1.678v-7.618h-1.678v7.618zm-3.326-3.787V37c0-1.306-.96-2.394-2.31-2.394-1.353 0-2.29 1.067-2.29 2.373V37c0 1.306.96 2.394 2.31 2.394 1.353 0 2.29-1.066 2.29-2.372zm-6.355 0V37c0-2.165 1.711-3.94 4.066-3.94 2.354 0 4.044 1.753 4.044 3.919V37c0 2.166-1.711 3.94-4.066 3.94-2.355 0-4.044-1.752-4.044-3.918zm-7.947-3.83h1.678v3.014h3.096V33.19h1.678v7.618h-1.678V37.75h-3.096v3.058h-1.678V33.19zm-8.384 3.83V37c0-2.165 1.635-3.94 3.979-3.94 1.439 0 2.3.48 3.009 1.176l-1.069 1.23c-.588-.533-1.188-.86-1.951-.86-1.286 0-2.213 1.067-2.213 2.373V37c0 1.306.905 2.394 2.213 2.394.872 0 1.406-.348 2.006-.892l1.068 1.077c-.785.838-1.657 1.361-3.128 1.361-2.246 0-3.914-1.73-3.914-3.918zm45.684-14.073c.752-.076 1.122-.457 1.068-1.077h-.676V20.13h1.766v1.47c0 1.436-.72 2.013-2.017 2.035l-.141-.686zm-6.923 3.69l.992-1.187c.687.566 1.406.925 2.278.925.687 0 1.101-.272 1.101-.718v-.022c0-.424-.261-.642-1.537-.968-1.537-.392-2.529-.817-2.529-2.33v-.02c0-1.383 1.112-2.297 2.67-2.297 1.113 0 2.061.348 2.835.968l-.872 1.263c-.676-.468-1.34-.751-1.984-.751-.643 0-.981.294-.981.664v.021c0 .501.327.664 1.646 1.002 1.548.402 2.42.957 2.42 2.285v.022c0 1.512-1.156 2.361-2.801 2.361a4.86 4.86 0 0 1-3.238-1.219zm-3.98-2.808c.818 0 1.287-.436 1.287-1.078v-.022c0-.718-.502-1.088-1.319-1.088h-1.668v2.188h1.7zm-3.378-3.7h3.488c.97 0 1.722.272 2.223.772.426.425.654 1.023.654 1.741v.022c0 1.23-.665 2.003-1.635 2.362l1.864 2.72h-1.962l-1.635-2.437h-1.319v2.437h-1.678v-7.617zm-3.25 3.83v-.022c0-1.306-.959-2.394-2.31-2.394-1.352 0-2.29 1.067-2.29 2.373v.021c0 1.306.96 2.395 2.311 2.395 1.352 0 2.29-1.067 2.29-2.373zm-6.355 0v-.022c0-2.165 1.712-3.939 4.066-3.939 2.355 0 4.044 1.752 4.044 3.918v.021c0 2.166-1.711 3.94-4.065 3.94-2.355 0-4.045-1.752-4.045-3.918zm-4.622-2.285h-2.322V20.13h6.322v1.545h-2.322v6.072H77.27v-6.072zm-5.364 6.072h1.68v-7.617h-1.68v7.617zm-5.625-1.512c1.373 0 2.3-.925 2.3-2.275v-.022c0-1.349-.927-2.296-2.3-2.296h-1.297v4.593h1.297zm-2.976-6.105h2.976c2.398 0 4.055 1.643 4.055 3.787v.021c0 2.144-1.657 3.81-4.055 3.81h-2.976V20.13zm-7.304 0h5.755v1.49h-4.087v1.546h3.597v1.49h-3.597v1.6h4.142v1.491H56v-7.617z" fill="#FF0"/><path d="M34.648 44.032h.874v-.917h-.88c.004.315-.005.615.006.917zm-12.84-3.59c.237-.066.435.029.5.255.083.292.084.59-.002.883-.068.228-.211.3-.498.264v-1.401zm-.001 2.006c.087 0 .162.003.237 0 .12-.007.242-.008.36-.028a.847.847 0 0 0 .696-.572c.06-.163.086-.332.099-.504.02-.278.007-.554-.082-.82a.886.886 0 0 0-.665-.614 1.704 1.704 0 0 0-.37-.048c-.332-.007-.665-.003-.998-.002-.029 0-.084.008-.084.008l.007 4.167h.8v-1.587zm3.914-1.066c.03-.314.035-.628-.046-.936-.088-.334-.305-.541-.649-.617a1.83 1.83 0 0 0-.519-.033c-.447.03-.748.252-.894.674-.07.2-.111.405-.132.613-.06.6-.066 1.202-.002 1.803.024.223.069.443.159.652a.878.878 0 0 0 .649.54c.22.048.444.054.666.022.312-.045.552-.196.681-.492.027-.061.051-.125.068-.19.085-.33.087-.666.066-1.003-.001-.025-.011-.05-.02-.083l-.73-.025c.004.07.008.12.008.173 0 .205.005.41-.007.616a1.026 1.026 0 0 1-.074.302c-.043.11-.136.164-.259.166-.166.001-.27-.06-.315-.219a1.666 1.666 0 0 1-.068-.396c-.014-.43-.023-.86-.021-1.29.001-.283.02-.567.043-.85.01-.114.046-.227.085-.335.039-.107.132-.148.244-.148.115 0 .195.052.24.155a.411.411 0 0 1 .037.105c.017.107.036.215.04.322.007.171.002.343.002.53l.73-.022c.012-.02.018-.027.018-.034zm12.284-.856c-.082-.404-.327-.646-.72-.706a2.303 2.303 0 0 0-.464-.022c-.447.024-.754.246-.895.67a2.578 2.578 0 0 0-.117.49 8.18 8.18 0 0 0-.003 2.046c.025.197.073.39.159.57a.874.874 0 0 0 .662.51c.179.034.36.04.542.026.452-.036.724-.256.842-.688.009-.032.017-.065.024-.098.061-.303.062-.61.042-.916-.002-.025-.013-.049-.018-.07-.249-.03-.645-.035-.727-.01v.078c.004.186.015.373.01.56a1.034 1.034 0 0 1-.081.427.28.28 0 0 1-.28.17c-.134-.002-.24-.051-.286-.18a1.117 1.117 0 0 1-.067-.282 13.01 13.01 0 0 1-.038-.739c-.01-.512-.01-1.025.042-1.535.012-.124.051-.249.096-.366.038-.102.133-.136.24-.135.104.001.186.043.227.138a.634.634 0 0 1 .061.203c.014.205.017.41.024.615.002.048 0 .095 0 .157l.746-.023a2.616 2.616 0 0 0-.021-.89zm-7.232 2.158c-.13.008-.252.005-.387 0l.19-1.546.197 1.546zm-1.397 1.349h.775l.133-.754h.597l.145.753h.857l-.874-4.186h-.825l-.808 4.187zm4.855-2.711c.004-.074.01-.14.01-.207.004-.263-.01-.523-.104-.773a.77.77 0 0 0-.564-.505 1.711 1.711 0 0 0-.775-.006.832.832 0 0 0-.601.467 1.836 1.836 0 0 0-.114.292 3.47 3.47 0 0 0-.122.785c-.031.535-.042 1.069.032 1.601.03.216.08.426.179.623.12.241.304.412.572.472.138.03.284.041.426.044a.632.632 0 0 0 .585-.321c.01-.018.027-.032.045-.053l.174.297c.114 0 .222.006.326-.004v-2.173c-.144-.024-1.032-.018-1.112.006-.022.163-.014.51.016.601h.403c-.006.203-.006.393-.02.582-.008.1-.03.201-.065.294-.062.165-.197.233-.393.218-.145-.01-.229-.081-.268-.259a2.478 2.478 0 0 1-.064-.454c-.02-.665-.036-1.33.02-1.995.01-.121.044-.242.08-.36a.231.231 0 0 1 .2-.162c.16-.024.256.024.308.177.032.094.053.196.059.295.009.175.002.35.002.544l.765-.026zm4.941-.243c.005-.13.024-.26.044-.39a.855.855 0 0 1 .059-.191c.048-.116.14-.17.266-.172a.28.28 0 0 1 .28.172c.061.135.086.28.09.425.014.391.026.783.027 1.175 0 .302-.01.605-.028.907-.008.125-.039.25-.077.37-.043.132-.15.19-.29.189-.132-.001-.23-.057-.273-.178a1.294 1.294 0 0 1-.076-.326c-.02-.264-.027-.53-.037-.794-.004-.108 0-.216 0-.325h-.005c.006-.287.009-.575.02-.862zm-.8 1.853c.024.246.083.486.2.708.128.24.327.388.596.443.217.045.436.046.654.017a.886.886 0 0 0 .744-.566c.03-.072.057-.146.079-.222a3.58 3.58 0 0 0 .12-.796c.031-.539.031-1.077-.054-1.611a1.905 1.905 0 0 0-.196-.618.869.869 0 0 0-.6-.457 1.731 1.731 0 0 0-.731-.003.829.829 0 0 0-.611.473 2.3 2.3 0 0 0-.155.443c-.096.4-.099.808-.118 1.217.023.324.04.649.072.972zM26.84 41.457c.134.862.291 1.72.439 2.575h.69c.145-.91.34-1.807.43-2.721v1.817c.001.301-.005.602.004.904h.726v-4.167h-1.022l-.484 2.743h-.02l-.465-2.741h-1.034v4.168h.736v-2.578zm15.416 2.576h.69c.147-.925.344-1.838.422-2.686v1.768c.001.306-.001.611.002.916h.735c.022-.167.015-4.083-.007-4.165h-1.015l-.484 2.746-.019-.002-.466-2.743h-1.032v4.163h.735v-2.507c.143.838.293 1.675.44 2.51zm-15.62-25.531c.02-.006.033-.013.047-.013.265.002.529.019.785.094.383.112.61.363.682.747.028.146.044.297.044.445.003 1.672.002 3.344.001 5.016 0 .195-.02.388-.079.576a.868.868 0 0 1-.544.577c-.297.114-.61.129-.935.135v-7.577zm-4.938 19.963h4.933V29.46h.158c.658-.008 1.317.022 1.974-.031a6 6 0 0 0 1.356-.255c1.177-.377 1.952-1.145 2.297-2.326a5.81 5.81 0 0 0 .218-1.64v-5.644c0-.246-.008-.493-.024-.74a4.888 4.888 0 0 0-.253-1.294c-.29-.845-.823-1.487-1.633-1.896a4.635 4.635 0 0 0-1.188-.396 8.24 8.24 0 0 0-1.625-.137h-6.223c-.025.254-.014 23.278.01 23.363zM44.804 24.47h-4.691v-.15c0-1.714 0-3.427-.002-5.14 0-.108-.011-.217-.034-.322-.065-.291-.254-.461-.55-.51a1.007 1.007 0 0 0-.45.022.624.624 0 0 0-.448.477c-.016.064-.022.132-.03.199-.004.044-.002.09-.002.135l.001 15.171c0 .115.007.232.028.346.055.307.226.473.538.526a1.1 1.1 0 0 0 .472-.019.569.569 0 0 0 .411-.383 1.38 1.38 0 0 0 .066-.464v-5.843c.088-.027 4.529-.034 4.682-.01.003.024.009.049.009.074 0 1.949.003 3.898-.004 5.846a4.582 4.582 0 0 1-.372 1.836c-.348.797-.936 1.365-1.724 1.738a5.634 5.634 0 0 1-1.503.45c-.844.14-1.693.146-2.545.095a8.992 8.992 0 0 1-1.866-.296c-.568-.157-1.106-.382-1.588-.723-.772-.544-1.239-1.285-1.441-2.196a5.12 5.12 0 0 1-.117-1.113V19.304c0-.604.092-1.192.328-1.753.283-.673.744-1.2 1.36-1.596.524-.336 1.098-.548 1.701-.692a9.526 9.526 0 0 1 1.557-.229c.54-.037 1.081-.046 1.622-.016.785.045 1.555.165 2.287.466.56.23 1.052.557 1.441 1.024.387.463.617.998.744 1.58.081.374.12.753.12 1.136v5.248z" fill="#FFF"/></g></svg>