<svg width="148" height="76" viewBox="0 0 148 76" xmlns="http://www.w3.org/2000/svg"><g fill="none" fill-rule="evenodd"><path d="M133.25 5.896a2.636 2.636 0 0 0-.602-.669c-.328.083-.921.1-1.599-.498-.7-.62-1.488-1.885-2.17-4.378a15.045 15.045 0 0 1-.093-.351c2.189 1.072 3.32 2.063 3.874 2.888.556.827.523 1.478.426 1.98a27.953 27.953 0 0 1 1.322 1.982l.176.29.034-.34c.062-.658.194-1.344.321-2.015.162-.845.317-1.66.331-2.377 1.803 2.7 2.247 4.54 2.151 5.767-.097 1.247-.757 1.855-1.13 2.238l.179.399.177.403c.071.167.148.346.227.537.078.19.152.371.221.544l.116.29.097-.292c.238-.725.565-1.46.884-2.177.4-.898.786-1.77.977-2.563 1.219 3.177 1.36 5.254 1.066 6.606-.301 1.38-1.058 1.999-1.633 2.412a113.553 113.553 0 0 1 .918 3.124l.095.34.12-.324c.423-1.135 1.282-2.256 2.108-3.332.644-.842 1.269-1.658 1.66-2.443.58 3.972.126 6.243-.61 7.541-.749 1.318-1.79 1.625-2.417 1.84a43.77 43.77 0 0 1 .585 2.88l.056.328.155-.285c.573-1.056 1.454-2.079 2.305-3.066.78-.907 1.537-1.784 2.02-2.645.427 4.568-.245 7.093-1.174 8.483-.94 1.407-2.144 1.643-2.822 1.795a45.534 45.534 0 0 1 .093 2.515l.003.332.199-.252c.726-.916 1.678-1.773 2.601-2.604.961-.866 1.893-1.705 2.518-2.563-.11 4.986-1.16 7.598-2.342 8.95-1.196 1.367-2.527 1.438-3.256 1.486a46.345 46.345 0 0 1-.305 2.204l-.055.334.242-.218c.99-.892 2.28-1.636 3.53-2.354 1.19-.686 2.342-1.35 3.171-2.103-.165.76-.34 1.463-.526 2.111-1.129 3.957-2.595 5.903-3.943 6.818-1.335.904-2.554.794-3.21.624-.099-.026-.182-.051-.39.003a43.236 43.236 0 0 1-.883 2.702l-.112.306.273-.154c1.347-.76 3.065-1.205 4.723-1.634 1.462-.379 2.878-.745 3.962-1.307-2.547 5.158-4.946 7.305-6.868 8.061-1.943.764-3.395.103-4.17-.242a44.932 44.932 0 0 1-1.373 2.476l-.166.28.3-.098c1.573-.52 3.525-.55 5.402-.578 1.557-.024 3.064-.047 4.278-.346-3.68 4.53-6.56 6.088-8.66 6.374-2.122.289-3.441-.725-4.143-1.25-.368.473-.745.94-1.13 1.397-.383.452-.779.9-1.184 1.343l-.232.253.333-.049c1.785-.258 3.943.302 6.008.838 1.523.394 2.997.778 4.25.816-4.742 3.423-7.948 4.114-10.062 3.785-2.13-.33-3.145-1.703-3.672-2.359a39.753 39.753 0 0 1-2.377 1.916l-.272.202.337.02c1.934.1 4.098 1.25 6.167 2.349 1.46.774 2.872 1.526 4.136 1.873-5.474 2.219-8.857 2.156-10.938 1.342-2.099-.821-2.865-2.41-3.284-3.238-.72.418-3.695 3.457-8.886 4.831 0 0-.971-.986-.855-1.702a42.081 42.081 0 0 0 4.73-1.593c1.545-.624 3.036-1.336 4.483-2.332-.686-.567-1.81-1.848-1.893-4.194-.083-2.324.855-5.685 4.228-10.418-.029 1.377.271 3.013.58 4.703.525 2.863 1.079 5.884.1 7.988l-.183.397.35-.24a39.058 39.058 0 0 0 1.558-1.116c.512-.385 1.013-.783 1.489-1.387-.694-.452-1.918-1.553-2.234-3.808-.312-2.23.261-5.583 3.092-10.541.101 1.327.537 2.87.987 4.465.708 2.51 1.452 5.15.961 7.218l-.098.415.289-.294c.488-.496.965-1.008 1.43-1.533.465-.526.916-1.063 1.298-1.803-.654-.236-2.13-.988-2.906-3.133-.768-2.125-.851-5.61 1.209-11.298.316 1.296.995 2.741 1.696 4.236 1.104 2.352 2.265 4.827 2.298 7.077l.234-.16a42.758 42.758 0 0 0 1.304-2.197c.102-.184.2-.366.297-.546a1.48 1.48 0 0 0 .207-.73c-.634-.13-2.157-.639-3.172-2.606-1.006-1.95-1.516-5.323-.194-11.15.458 1.211 1.28 2.52 2.13 3.873 1.252 1.993 2.562 4.081 2.824 6.05l.029.222.301-.287a38.95 38.95 0 0 0 .637-1.74c.2-.584.387-1.176.458-1.93-.68-.047-2.07-.357-3.204-2.002-1.122-1.626-1.992-4.551-1.699-9.79.591 1.008 1.514 2.042 2.466 3.109 1.332 1.492 2.723 3.051 3.393 4.864l.166-.235a42.35 42.35 0 0 0 .267-1.575c.081-.527.152-1.057.09-1.725-.601.028-1.934-.098-3.144-1.52-1.195-1.404-2.268-4.068-2.41-9.072.631.888 1.567 1.77 2.534 2.68 1.211 1.141 2.47 2.327 3.214 3.606l.206.354.004-.411a41.96 41.96 0 0 0-.012-1.664c-.014-.55-.038-1.103-.21-1.774-.565.096-1.793.12-3.042-1.05-1.233-1.158-2.484-3.473-3.15-8.008.674.733 1.62 1.428 2.595 2.143 1.076.789 2.19 1.607 3 2.525l.261.296-.067-.396a45.604 45.604 0 0 0-.274-1.466c-.099-.483-.206-.97-.466-1.55-.503.148-1.584.288-2.794-.623-1.193-.9-2.51-2.816-3.533-6.733.666.572 1.56 1.08 2.482 1.604.934.531 1.898 1.078 2.674 1.723l.28.232-.102-.358c-.118-.411-.235-.818-.355-1.218-.12-.407-.242-.807-.52-1.277-.29.127-1.28.462-2.482-.24-1.187-.694-2.575-2.393-3.708-6.272.627.503 1.456.942 2.311 1.394.888.47 1.804.956 2.54 1.537l.327.258-.155-.398a48.489 48.489 0 0 0-.79-1.897 1.44 1.44 0 0 0-.33-.49c-.468.153-1.315.251-2.314-.434-.98-.67-2.102-2.09-3.165-4.921.578.386 1.317.704 2.078 1.034.408.176.823.356 1.22.549l.367.178-.227-.354a31.308 31.308 0 0 0-.425-.643zm-118.5 0c.152-.222.3-.432.602-.669.328.083.921.1 1.599-.498.7-.62 1.488-1.885 2.17-4.378.032-.115.063-.232.093-.351-2.189 1.072-3.32 2.063-3.874 2.888-.556.827-.523 1.478-.426 1.98a27.953 27.953 0 0 0-1.322 1.982l-.176.29-.034-.34c-.062-.658-.194-1.344-.321-2.015-.162-.845-.317-1.66-.331-2.377-1.803 2.7-2.247 4.54-2.151 5.767.097 1.247.757 1.855 1.13 2.238l-.179.399a49.39 49.39 0 0 0-.177.403c-.071.167-.148.346-.227.537-.078.19-.152.371-.221.544l-.116.29-.097-.292c-.238-.725-.565-1.46-.884-2.177-.4-.898-.786-1.77-.977-2.563-1.219 3.177-1.36 5.254-1.066 6.606.301 1.38 1.058 1.999 1.633 2.412a113.557 113.557 0 0 0-.918 3.124l-.095.34-.12-.324c-.423-1.135-1.282-2.256-2.108-3.332-.644-.842-1.269-1.658-1.66-2.443-.58 3.972-.126 6.243.61 7.541.749 1.318 1.79 1.625 2.417 1.84a41.47 41.47 0 0 0-.316 1.435 43.77 43.77 0 0 0-.27 1.445l-.055.328-.155-.285c-.573-1.056-1.454-2.079-2.305-3.066-.78-.907-1.537-1.784-2.02-2.645-.427 4.568.245 7.093 1.174 8.483.94 1.407 2.144 1.643 2.822 1.795a45.535 45.535 0 0 0-.093 2.515l-.003.332-.199-.252c-.726-.916-1.678-1.773-2.601-2.604-.961-.866-1.893-1.705-2.518-2.563.11 4.986 1.16 7.598 2.342 8.95 1.196 1.367 2.527 1.438 3.256 1.486a46.346 46.346 0 0 0 .305 2.204l.055.334-.242-.218c-.99-.892-2.28-1.636-3.53-2.354C1.98 37.952.828 37.288 0 36.535c.165.76.34 1.463.526 2.111 1.129 3.957 2.595 5.903 3.943 6.818 1.335.904 2.554.794 3.21.624.099-.026.182-.051.39.003a43.238 43.238 0 0 0 .883 2.702l.112.306-.273-.154c-1.347-.76-3.065-1.205-4.723-1.634-1.462-.379-2.878-.745-3.962-1.307 2.547 5.158 4.946 7.305 6.868 8.061 1.943.764 3.395.103 4.17-.242a44.928 44.928 0 0 0 1.373 2.476l.166.28-.3-.098c-1.573-.52-3.525-.55-5.402-.578-1.557-.024-3.064-.047-4.278-.346 3.68 4.53 6.56 6.088 8.66 6.374 2.122.289 3.441-.725 4.143-1.25.368.473.745.94 1.13 1.397.383.452.779.9 1.184 1.343l.232.253-.333-.049c-1.785-.258-3.943.302-6.008.838-1.523.394-2.997.778-4.25.816 4.742 3.423 7.948 4.114 10.062 3.785 2.13-.33 3.145-1.703 3.672-2.359a39.753 39.753 0 0 0 2.377 1.916l.272.202-.337.02c-1.934.1-4.098 1.25-6.167 2.349-1.46.774-2.872 1.526-4.136 1.873 5.474 2.219 8.857 2.156 10.938 1.342 2.099-.821 2.865-2.41 3.284-3.238.72.418 3.695 3.457 8.886 4.831 0 0 .971-.986.855-1.702a42.081 42.081 0 0 1-4.73-1.593c-1.545-.624-3.036-1.336-4.483-2.332.686-.567 1.81-1.848 1.893-4.194.083-2.324-.855-5.685-4.228-10.418.029 1.377-.271 3.013-.58 4.703-.525 2.863-1.079 5.884-.1 7.988l.183.397-.35-.24a39.057 39.057 0 0 1-1.558-1.116c-.512-.385-1.013-.783-1.489-1.387.694-.452 1.918-1.553 2.234-3.808.312-2.23-.261-5.583-3.092-10.541-.101 1.327-.537 2.87-.987 4.465-.708 2.51-1.452 5.15-.961 7.218l.098.415-.289-.294a39.215 39.215 0 0 1-1.43-1.533c-.465-.526-.916-1.063-1.298-1.803.654-.236 2.13-.988 2.906-3.133.768-2.125.851-5.61-1.209-11.298-.316 1.296-.995 2.741-1.696 4.236-1.104 2.352-2.265 4.827-2.298 7.077l-.234-.16a42.758 42.758 0 0 1-1.304-2.197c-.102-.184-.2-.366-.297-.546a1.464 1.464 0 0 1-.207-.73c.634-.13 2.157-.639 3.172-2.606 1.006-1.95 1.516-5.323.194-11.15-.458 1.211-1.28 2.52-2.13 3.873-1.252 1.993-2.562 4.081-2.824 6.05l-.029.222-.301-.287a39.999 39.999 0 0 1-.637-1.74c-.2-.584-.387-1.176-.458-1.93.68-.047 2.07-.357 3.204-2.002 1.122-1.626 1.992-4.551 1.699-9.79-.591 1.008-1.514 2.042-2.466 3.109-1.332 1.492-2.723 3.051-3.393 4.864l-.166-.235a43.186 43.186 0 0 1-.267-1.575c-.081-.527-.152-1.057-.09-1.725.601.028 1.934-.098 3.144-1.52 1.195-1.404 2.268-4.068 2.41-9.072-.631.888-1.567 1.77-2.534 2.68-1.211 1.141-2.47 2.327-3.214 3.606l-.206.354-.004-.411a41.96 41.96 0 0 1 .012-1.664c.014-.55.038-1.103.21-1.774.565.096 1.793.12 3.042-1.05 1.233-1.158 2.484-3.473 3.15-8.008-.674.733-1.62 1.428-2.595 2.143-1.076.789-2.19 1.607-3 2.525l-.261.296.067-.396c.084-.492.175-.981.274-1.466.099-.483.206-.97.466-1.55.503.148 1.584.288 2.794-.623 1.193-.9 2.51-2.816 3.533-6.733-.666.572-1.56 1.08-2.482 1.604-.934.531-1.898 1.078-2.674 1.723l-.28.232.102-.358c.118-.411.235-.818.355-1.218.12-.407.242-.807.52-1.277.29.127 1.28.462 2.482-.24 1.187-.694 2.575-2.393 3.708-6.272-.627.503-1.456.942-2.311 1.394-.888.47-1.804.956-2.54 1.537l-.327.258.155-.398a48.488 48.488 0 0 1 .79-1.897 1.44 1.44 0 0 1 .33-.49c.468.153 1.315.251 2.314-.434.98-.67 2.102-2.09 3.165-4.921-.578.386-1.317.704-2.078 1.034-.408.176-.823.356-1.22.549l-.367.178.227-.354c.133-.208.275-.422.425-.643z" fill="#E1E1E1"/><path d="M42.605 52.17c1.5 0 2.52.77 2.52 2.06 0 .42-.2 1.27-1.13 1.69 1.19.38 1.49 1.27 1.49 1.89 0 1.26-.91 2.19-2.78 2.19h-3.09v-7.83h2.99zm-.23 3.31c1.07 0 1.52-.52 1.52-1.12 0-.6-.4-1.08-1.45-1.08h-1.61v2.2h1.54zm.35 3.41c1.02 0 1.53-.5 1.53-1.18 0-.64-.48-1.15-1.61-1.15h-1.81v2.33h1.89zm6.36-3.32c-.73 0-1.3.48-1.41 1.21h2.8c-.04-.76-.65-1.21-1.39-1.21zm2.58 2.11h-4.05c.02.82.78 1.39 1.56 1.39.65 0 1.2-.25 1.42-.9l.99.34c-.3 1-1.33 1.59-2.39 1.59-1.58 0-2.8-1.19-2.8-2.78 0-1.51 1.14-2.77 2.69-2.77 1.66 0 2.6 1.15 2.6 2.76 0 .12 0 .24-.02.37zm3.01 2.41c-1.47 0-2.07-.95-2.14-1.55l1.03-.26c.09.46.5.84 1.11.84.56 0 .89-.25.89-.62 0-.42-.32-.55-1.08-.67-.97-.16-1.84-.46-1.84-1.64 0-.85.82-1.64 2.01-1.64 1.41 0 1.95.94 2.02 1.47l-1.01.24c-.09-.36-.38-.75-1.05-.75-.42 0-.82.24-.82.58 0 .43.33.56 1.05.66 1 .13 1.92.51 1.92 1.68 0 .84-.67 1.66-2.09 1.66zm6.29-4.36h-1.35v2.55c0 .46.23.69.82.69.11 0 .26-.01.48-.04v1.01c-.32.1-.7.11-.85.11-1.05 0-1.64-.41-1.64-1.71v-2.61h-1.04v-1.07h1.04v-1.65h1.19v1.65h1.35v1.07zm1.64-3.56l2.33 6.41 2.35-6.41h1.3L65.625 60h-1.42l-2.97-7.83h1.37zm12.68 2.43c0 1.36-1 2.5-2.89 2.5h-1.39V60h-1.23v-7.83h2.77c1.96 0 2.74 1.22 2.74 2.43zm-1.25.03c0-.59-.31-1.32-1.6-1.32h-1.43v2.66h1.43c1.19 0 1.6-.72 1.6-1.34zm9.1 5.37h-1.28l-4.04-6.03V60h-1.21v-7.83h1.45l3.86 5.77v-5.77h1.22V60zm1.59-.82c0-.49.39-.88.87-.88.49 0 .87.39.87.88 0 .47-.38.87-.87.87-.48 0-.87-.4-.87-.87zm5.55.91c-1.57 0-2.78-1.2-2.78-2.77 0-1.52 1.21-2.77 2.8-2.77 1.32 0 2.24.82 2.47 1.72l-1.08.36c-.12-.42-.51-1-1.4-1-.87 0-1.57.66-1.57 1.67 0 1 .67 1.71 1.58 1.71.92 0 1.25-.61 1.41-1.02l1.09.35c-.24.82-1.07 1.75-2.52 1.75zm3.3-2.77c0-1.58 1.28-2.77 2.83-2.77 1.53 0 2.8 1.18 2.8 2.75 0 1.58-1.24 2.79-2.81 2.79-1.54 0-2.82-1.19-2.82-2.77zm1.22-.02c0 .91.64 1.71 1.61 1.71.97 0 1.59-.77 1.59-1.69 0-.92-.63-1.69-1.6-1.69-.96 0-1.6.75-1.6 1.67zm9.16-.3c0-.75-.33-1.33-1.15-1.33-.73 0-1.17.55-1.17 1.36V60h-1.19v-5.34h1.16v.72c.51-.68 1.17-.84 1.59-.84.82 0 1.35.34 1.65.88.52-.58 1.04-.88 1.86-.88 1.35 0 1.94.95 1.94 2.16V60h-1.19v-3.01c0-.76-.32-1.32-1.14-1.32-.74 0-1.18.54-1.18 1.35V60h-1.18v-3zm-47.64 17h-1.26l3.19-7.83h1.45l3.17 7.83h-1.28l-.71-1.84h-3.84l-.72 1.84zm4.13-2.93l-1.49-3.72-1.48 3.72h2.97zm8.61 1.37l1.12-3.78h1.22L69.685 74h-1.24l-1.23-3.75h-.02L65.955 74h-1.22l-1.71-5.34h1.25l1.12 3.77h.01l1.21-3.77h1.2l1.22 3.78h.02zm7.4 1.56h-1.17v-.73c-.39.65-1.07.82-1.57.82-1.04 0-1.8-.65-1.8-1.57v-.06c0-1.24 1.29-1.63 2.22-1.63h.66c.36 0 .5-.19.5-.45 0-.42-.35-.81-1.05-.81-.65 0-1.08.37-1.17.88l-1.08-.24c.05-.45.46-1.13 1.2-1.45.31-.14.69-.21 1.08-.21.9 0 1.65.32 2 1.09.13.29.18.6.18.96V74zm-1.17-2.16v-.17h-1.15c-.45 0-1.03.24-1.03.74 0 .44.35.73.85.73.81 0 1.33-.5 1.33-1.3zm5.63-1.98c-.1-.02-.32-.03-.34-.03-.91 0-1.39.54-1.39 1.46V74h-1.19v-5.34h1.16v.82c.33-.58.91-.87 1.47-.87.04 0 .2.01.29.03v1.22zm.52 1.46c0-1.34.99-2.76 2.66-2.76.47 0 1.33.23 1.73.86v-3.56h1.19V74h-1.16v-.83c-.42.69-1.36.91-1.79.91-1.54 0-2.63-1.32-2.63-2.76zm4.41 0c0-.92-.64-1.69-1.6-1.69-.97 0-1.6.77-1.6 1.69 0 .92.64 1.68 1.6 1.68.96 0 1.6-.76 1.6-1.68zm4.54 2.77c-1.47 0-2.07-.95-2.14-1.55l1.03-.26c.09.46.5.84 1.11.84.56 0 .89-.25.89-.62 0-.42-.32-.55-1.08-.67-.97-.16-1.84-.46-1.84-1.64 0-.85.82-1.64 2.01-1.64 1.41 0 1.95.94 2.02 1.47l-1.01.24c-.09-.36-.38-.75-1.05-.75-.42 0-.82.24-.82.58 0 .43.33.56 1.05.66 1 .13 1.92.51 1.92 1.68 0 .84-.67 1.66-2.09 1.66z" fill="#999"/><path d="M33.838 12.604c1.8 0 3.024.924 3.024 2.472 0 .504-.24 1.524-1.356 2.028 1.428.456 1.788 1.524 1.788 2.268 0 1.512-1.092 2.628-3.336 2.628H30.25v-9.396h3.588zm-.276 3.972c1.284 0 1.824-.624 1.824-1.344 0-.72-.48-1.296-1.74-1.296h-1.932v2.64h1.848zm.42 4.092c1.224 0 1.836-.6 1.836-1.416 0-.768-.576-1.38-1.932-1.38h-2.172v2.796h2.268zm7.632-3.984c-.876 0-1.56.576-1.692 1.452h3.36c-.048-.912-.78-1.452-1.668-1.452zm3.096 2.532h-4.86c.024.984.936 1.668 1.872 1.668.78 0 1.44-.3 1.704-1.08l1.188.408c-.36 1.2-1.596 1.908-2.868 1.908-1.896 0-3.36-1.428-3.36-3.336 0-1.812 1.368-3.324 3.228-3.324 1.992 0 3.12 1.38 3.12 3.312 0 .144 0 .288-.024.444zm3.612 2.892c-1.764 0-2.484-1.14-2.568-1.86l1.236-.312c.108.552.6 1.008 1.332 1.008.672 0 1.068-.3 1.068-.744 0-.504-.384-.66-1.296-.804-1.164-.192-2.208-.552-2.208-1.968 0-1.02.984-1.968 2.412-1.968 1.692 0 2.34 1.128 2.424 1.764l-1.212.288c-.108-.432-.456-.9-1.26-.9-.504 0-.984.288-.984.696 0 .516.396.672 1.26.792 1.2.156 2.304.612 2.304 2.016 0 1.008-.804 1.992-2.508 1.992zm7.548-5.232h-1.62v3.06c0 .552.276.828.984.828.132 0 .312-.012.576-.048v1.212c-.384.12-.84.132-1.02.132-1.26 0-1.968-.492-1.968-2.052v-3.132h-1.248v-1.284h1.248v-1.98h1.428v1.98h1.62v1.284zm9.012 5.232c-2.364 0-4.728-1.74-4.728-4.776 0-2.832 2.232-4.86 4.788-4.86 2.64 0 4.02 1.788 4.344 3.072l-1.452.492c-.132-.576-.792-2.184-2.916-2.184-1.644 0-3.204 1.332-3.204 3.432 0 2.088 1.536 3.444 3.204 3.444 1.944 0 2.736-1.536 2.94-2.232L69.31 19c-.3 1.152-1.668 3.108-4.428 3.108zm7.14-2.928c0 .912.432 1.596 1.416 1.596.9 0 1.476-.648 1.476-1.62v-3.564h1.428V22H74.95v-.864a2.406 2.406 0 0 1-1.956.996c-1.608 0-2.4-1.14-2.4-2.604v-3.936h1.428v3.588zm8.364 2.928c-1.764 0-2.484-1.14-2.568-1.86l1.236-.312c.108.552.6 1.008 1.332 1.008.672 0 1.068-.3 1.068-.744 0-.504-.384-.66-1.296-.804-1.164-.192-2.208-.552-2.208-1.968 0-1.02.984-1.968 2.412-1.968 1.692 0 2.34 1.128 2.424 1.764l-1.212.288c-.108-.432-.456-.9-1.26-.9-.504 0-.984.288-.984.696 0 .516.396.672 1.26.792 1.2.156 2.304.612 2.304 2.016 0 1.008-.804 1.992-2.508 1.992zm7.548-5.232h-1.62v3.06c0 .552.276.828.984.828.132 0 .312-.012.576-.048v1.212c-.384.12-.84.132-1.02.132-1.26 0-1.968-.492-1.968-2.052v-3.132h-1.248v-1.284h1.248v-1.98h1.428v1.98h1.62v1.284zm.948 1.908c0-1.896 1.536-3.324 3.396-3.324 1.836 0 3.36 1.416 3.36 3.3 0 1.896-1.488 3.348-3.372 3.348-1.848 0-3.384-1.428-3.384-3.324zm1.464-.024c0 1.092.768 2.052 1.932 2.052s1.908-.924 1.908-2.028-.756-2.028-1.92-2.028c-1.152 0-1.92.9-1.92 2.004zm10.992-.36c0-.9-.396-1.596-1.38-1.596-.876 0-1.404.66-1.404 1.632V22h-1.428v-6.408h1.392v.864c.612-.816 1.404-1.008 1.908-1.008.984 0 1.62.408 1.98 1.056.624-.696 1.248-1.056 2.232-1.056 1.62 0 2.328 1.14 2.328 2.592V22h-1.428v-3.612c0-.912-.384-1.584-1.368-1.584-.888 0-1.416.648-1.416 1.62V22h-1.416v-3.6zm10.272-1.716c-.876 0-1.56.576-1.692 1.452h3.36c-.048-.912-.78-1.452-1.668-1.452zm3.096 2.532h-4.86c.024.984.936 1.668 1.872 1.668.78 0 1.44-.3 1.704-1.08l1.188.408c-.36 1.2-1.596 1.908-2.868 1.908-1.896 0-3.36-1.428-3.36-3.336 0-1.812 1.368-3.324 3.228-3.324 1.992 0 3.12 1.38 3.12 3.312 0 .144 0 .288-.024.444zm4.992-2.184a3.502 3.502 0 0 0-.408-.036c-1.092 0-1.668.648-1.668 1.752V22h-1.428v-6.408h1.392v.984a2.03 2.03 0 0 1 1.764-1.044c.048 0 .24.012.348.036v1.464zM38.89 38.108c-2.196 0-3.348-1.416-3.48-2.748l1.428-.384c.204 1.092.948 1.8 2.076 1.8.936 0 1.704-.528 1.704-1.32 0-.768-.6-1.2-1.392-1.368l-1.152-.24c-1.548-.312-2.388-1.332-2.388-2.556 0-1.548 1.416-2.82 3.108-2.82 2.124 0 3 1.284 3.192 2.304l-1.368.432c-.168-.672-.804-1.416-1.8-1.416-.912 0-1.62.648-1.62 1.368 0 .528.432 1.092 1.188 1.248l1.188.228c1.68.336 2.568 1.332 2.568 2.724 0 1.368-1.176 2.748-3.252 2.748zm7.584-5.424c-.876 0-1.56.576-1.692 1.452h3.36c-.048-.912-.78-1.452-1.668-1.452zm3.096 2.532h-4.86c.024.984.936 1.668 1.872 1.668.78 0 1.44-.3 1.704-1.08l1.188.408c-.36 1.2-1.596 1.908-2.868 1.908-1.896 0-3.36-1.428-3.36-3.336 0-1.812 1.368-3.324 3.228-3.324 1.992 0 3.12 1.38 3.12 3.312 0 .144 0 .288-.024.444zm4.992-2.184a3.502 3.502 0 0 0-.408-.036c-1.092 0-1.668.648-1.668 1.752V38h-1.428v-6.408h1.392v.984a2.03 2.03 0 0 1 1.764-1.044c.048 0 .24.012.348.036v1.464zM57.73 38l-2.712-6.408h1.548l1.884 4.74 1.884-4.74h1.5L59.158 38H57.73zm5.064-8.484c0-.516.42-.948.936-.948s.936.432.936.948a.937.937 0 0 1-1.872 0zM63.022 38v-6.408h1.428V38h-1.428zm6.24.108c-1.884 0-3.336-1.44-3.336-3.324 0-1.824 1.452-3.324 3.36-3.324 1.584 0 2.688.984 2.964 2.064l-1.296.432c-.144-.504-.612-1.2-1.68-1.2-1.044 0-1.884.792-1.884 2.004 0 1.2.804 2.052 1.896 2.052 1.104 0 1.5-.732 1.692-1.224l1.308.42c-.288.984-1.284 2.1-3.024 2.1zm7.2-5.424c-.876 0-1.56.576-1.692 1.452h3.36c-.048-.912-.78-1.452-1.668-1.452zm3.096 2.532h-4.86c.024.984.936 1.668 1.872 1.668.78 0 1.44-.3 1.704-1.08l1.188.408c-.36 1.2-1.596 1.908-2.868 1.908-1.896 0-3.36-1.428-3.36-3.336 0-1.812 1.368-3.324 3.228-3.324 1.992 0 3.12 1.38 3.12 3.312 0 .144 0 .288-.024.444zm4.296 2.376c-.024-1.068.444-2.34 2.232-3.384l1.452-.864c.864-.504 1.428-1.032 1.428-1.932 0-.852-.66-1.584-1.74-1.584-.804 0-1.344.408-1.608.912-.156.312-.18.672-.18.996l-1.5-.204c-.024-1.332.996-3.06 3.312-3.06 2.052 0 3.24 1.404 3.24 2.916 0 1.116-.66 2.172-1.752 2.82l-1.716.996c-.336.204-1.14.672-1.332 1.464h4.884V38h-6.72v-.408zm11.952.516c-2.376 0-3.936-2.112-3.936-4.812 0-2.688 1.596-4.824 3.96-4.824 2.376 0 3.936 2.112 3.936 4.8 0 2.7-1.584 4.836-3.96 4.836zm0-8.28c-1.488 0-2.4 1.548-2.4 3.444s.936 3.48 2.424 3.48 2.412-1.56 2.412-3.456c0-1.872-.948-3.468-2.436-3.468zm5.364 1.632l-.684-1.128 2.868-1.728h1.404V38h-1.476v-7.812l-2.112 1.272zm6.876 3.864c0 .84.864 1.5 1.968 1.5 1.092 0 1.992-.624 1.992-1.5 0-.864-.912-1.488-1.992-1.488-1.116 0-1.968.6-1.968 1.488zm.228-4.164c0 .828.804 1.416 1.74 1.416 1.008 0 1.752-.6 1.752-1.416 0-.828-.756-1.416-1.752-1.416-1.02 0-1.74.588-1.74 1.416zm1.74 6.948c-1.908 0-3.444-1.068-3.444-2.664 0-.96.456-1.836 1.8-2.328v-.012c-.972-.276-1.56-1.092-1.56-2.088 0-1.608 1.596-2.544 3.204-2.544 1.632 0 3.216.912 3.216 2.544 0 1.02-.588 1.776-1.548 2.088v.012c1.296.468 1.788 1.308 1.788 2.268 0 1.68-1.548 2.724-3.456 2.724z" fill="#4A4A4A"/></g></svg>